<mxfile host="app.diagrams.net" agent="Mozilla/5.0 (Windows NT 10.0; Win64; x64) AppleWebKit/537.36 (KHTML, like Gecko) Chrome/130.0.0.0 Safari/537.36" version="24.8.6">
  <diagram name="Page-1" id="ZFBzeWP7xQuHgjpVmnQu">
    <mxGraphModel dx="979" dy="1033" grid="0" gridSize="10" guides="1" tooltips="1" connect="1" arrows="1" fold="1" page="0" pageScale="1" pageWidth="850" pageHeight="1100" math="0" shadow="0">
      <root>
        <mxCell id="0" />
        <mxCell id="1" parent="0" />
        <mxCell id="11AMlIxPSWYtb6RvdD54-6" style="edgeStyle=none;curved=1;rounded=0;orthogonalLoop=1;jettySize=auto;html=1;exitX=0.5;exitY=1;exitDx=0;exitDy=0;exitPerimeter=0;entryX=0.5;entryY=0;entryDx=0;entryDy=0;fontSize=12;startSize=8;endSize=8;" edge="1" parent="1" source="11AMlIxPSWYtb6RvdD54-1" target="11AMlIxPSWYtb6RvdD54-3">
          <mxGeometry relative="1" as="geometry" />
        </mxCell>
        <mxCell id="11AMlIxPSWYtb6RvdD54-1" value="&lt;i&gt;START&lt;/i&gt;" style="strokeWidth=2;html=1;shape=mxgraph.flowchart.terminator;whiteSpace=wrap;" vertex="1" parent="1">
          <mxGeometry x="-72" y="-28" width="100" height="60" as="geometry" />
        </mxCell>
        <mxCell id="11AMlIxPSWYtb6RvdD54-2" value="&lt;i&gt;END&lt;/i&gt;" style="strokeWidth=2;html=1;shape=mxgraph.flowchart.terminator;whiteSpace=wrap;" vertex="1" parent="1">
          <mxGeometry x="136" y="602.53" width="100" height="60" as="geometry" />
        </mxCell>
        <mxCell id="11AMlIxPSWYtb6RvdD54-9" style="edgeStyle=none;curved=1;rounded=0;orthogonalLoop=1;jettySize=auto;html=1;exitX=0.5;exitY=1;exitDx=0;exitDy=0;fontSize=12;startSize=8;endSize=8;" edge="1" parent="1" source="11AMlIxPSWYtb6RvdD54-3" target="11AMlIxPSWYtb6RvdD54-5">
          <mxGeometry relative="1" as="geometry" />
        </mxCell>
        <mxCell id="11AMlIxPSWYtb6RvdD54-3" value="Hasil&lt;div&gt;Pembakuan Kata&lt;/div&gt;" style="shape=parallelogram;html=1;strokeWidth=2;perimeter=parallelogramPerimeter;whiteSpace=wrap;rounded=1;arcSize=12;size=0.23;" vertex="1" parent="1">
          <mxGeometry x="-97" y="80" width="150" height="60" as="geometry" />
        </mxCell>
        <mxCell id="11AMlIxPSWYtb6RvdD54-4" value="Hasil&lt;div&gt;&lt;i&gt;Negation Handling&lt;/i&gt;&lt;/div&gt;" style="shape=parallelogram;html=1;strokeWidth=2;perimeter=parallelogramPerimeter;whiteSpace=wrap;rounded=1;arcSize=12;size=0.23;" vertex="1" parent="1">
          <mxGeometry x="106" y="496.53" width="160" height="60" as="geometry" />
        </mxCell>
        <mxCell id="11AMlIxPSWYtb6RvdD54-5" value="Cek Kata&lt;div&gt;dalam Kamus Negasi&lt;/div&gt;" style="rounded=1;whiteSpace=wrap;html=1;absoluteArcSize=1;arcSize=14;strokeWidth=2;" vertex="1" parent="1">
          <mxGeometry x="-87.5" y="184" width="131" height="70" as="geometry" />
        </mxCell>
        <mxCell id="11AMlIxPSWYtb6RvdD54-12" style="edgeStyle=none;curved=1;rounded=0;orthogonalLoop=1;jettySize=auto;html=1;exitX=0.5;exitY=1;exitDx=0;exitDy=0;exitPerimeter=0;entryX=0.5;entryY=0;entryDx=0;entryDy=0;fontSize=12;startSize=8;endSize=8;" edge="1" parent="1" source="11AMlIxPSWYtb6RvdD54-7" target="11AMlIxPSWYtb6RvdD54-4">
          <mxGeometry relative="1" as="geometry" />
        </mxCell>
        <mxCell id="11AMlIxPSWYtb6RvdD54-13" value="FALSE" style="edgeLabel;html=1;align=center;verticalAlign=middle;resizable=0;points=[];fontSize=12;" vertex="1" connectable="0" parent="11AMlIxPSWYtb6RvdD54-12">
          <mxGeometry x="-0.2174" y="-1" relative="1" as="geometry">
            <mxPoint as="offset" />
          </mxGeometry>
        </mxCell>
        <mxCell id="11AMlIxPSWYtb6RvdD54-14" style="edgeStyle=none;curved=1;rounded=0;orthogonalLoop=1;jettySize=auto;html=1;exitX=1;exitY=0.5;exitDx=0;exitDy=0;exitPerimeter=0;entryX=0;entryY=0.5;entryDx=0;entryDy=0;fontSize=12;startSize=8;endSize=8;" edge="1" parent="1" source="11AMlIxPSWYtb6RvdD54-7" target="11AMlIxPSWYtb6RvdD54-10">
          <mxGeometry relative="1" as="geometry" />
        </mxCell>
        <mxCell id="11AMlIxPSWYtb6RvdD54-15" value="TRUE" style="edgeLabel;html=1;align=center;verticalAlign=middle;resizable=0;points=[];fontSize=12;" vertex="1" connectable="0" parent="11AMlIxPSWYtb6RvdD54-14">
          <mxGeometry x="-0.0796" y="1" relative="1" as="geometry">
            <mxPoint as="offset" />
          </mxGeometry>
        </mxCell>
        <mxCell id="11AMlIxPSWYtb6RvdD54-7" value="Ada" style="strokeWidth=2;html=1;shape=mxgraph.flowchart.decision;whiteSpace=wrap;" vertex="1" parent="1">
          <mxGeometry x="131" y="169" width="100" height="100" as="geometry" />
        </mxCell>
        <mxCell id="11AMlIxPSWYtb6RvdD54-8" style="edgeStyle=none;curved=1;rounded=0;orthogonalLoop=1;jettySize=auto;html=1;exitX=1;exitY=0.5;exitDx=0;exitDy=0;entryX=0;entryY=0.5;entryDx=0;entryDy=0;entryPerimeter=0;fontSize=12;startSize=8;endSize=8;" edge="1" parent="1" source="11AMlIxPSWYtb6RvdD54-5" target="11AMlIxPSWYtb6RvdD54-7">
          <mxGeometry relative="1" as="geometry" />
        </mxCell>
        <mxCell id="11AMlIxPSWYtb6RvdD54-17" style="edgeStyle=none;curved=1;rounded=0;orthogonalLoop=1;jettySize=auto;html=1;exitX=1;exitY=0.5;exitDx=0;exitDy=0;entryX=0;entryY=0.5;entryDx=0;entryDy=0;fontSize=12;startSize=8;endSize=8;" edge="1" parent="1" source="11AMlIxPSWYtb6RvdD54-10" target="11AMlIxPSWYtb6RvdD54-16">
          <mxGeometry relative="1" as="geometry" />
        </mxCell>
        <mxCell id="11AMlIxPSWYtb6RvdD54-10" value="Gabung kata negasi dan kata setelahnya&lt;div&gt;dengan &lt;i&gt;underscore&lt;/i&gt;&lt;/div&gt;&lt;div&gt;&lt;i&gt;(_)&lt;/i&gt;&lt;/div&gt;" style="rounded=1;whiteSpace=wrap;html=1;absoluteArcSize=1;arcSize=14;strokeWidth=2;" vertex="1" parent="1">
          <mxGeometry x="344" y="184" width="131" height="70" as="geometry" />
        </mxCell>
        <mxCell id="11AMlIxPSWYtb6RvdD54-11" style="edgeStyle=none;curved=1;rounded=0;orthogonalLoop=1;jettySize=auto;html=1;exitX=0.5;exitY=1;exitDx=0;exitDy=0;entryX=0.5;entryY=0;entryDx=0;entryDy=0;entryPerimeter=0;fontSize=12;startSize=8;endSize=8;" edge="1" parent="1" source="11AMlIxPSWYtb6RvdD54-4" target="11AMlIxPSWYtb6RvdD54-2">
          <mxGeometry relative="1" as="geometry" />
        </mxCell>
        <mxCell id="11AMlIxPSWYtb6RvdD54-21" style="edgeStyle=none;curved=1;rounded=0;orthogonalLoop=1;jettySize=auto;html=1;exitX=1;exitY=0.5;exitDx=0;exitDy=0;entryX=0;entryY=0.5;entryDx=0;entryDy=0;fontSize=12;startSize=8;endSize=8;" edge="1" parent="1" source="11AMlIxPSWYtb6RvdD54-16" target="11AMlIxPSWYtb6RvdD54-19">
          <mxGeometry relative="1" as="geometry" />
        </mxCell>
        <mxCell id="11AMlIxPSWYtb6RvdD54-16" value="Hasil Gabungan&amp;nbsp;&lt;div&gt;Kata&lt;/div&gt;" style="shape=parallelogram;html=1;strokeWidth=2;perimeter=parallelogramPerimeter;whiteSpace=wrap;rounded=1;arcSize=12;size=0.23;" vertex="1" parent="1">
          <mxGeometry x="541" y="189" width="160" height="60" as="geometry" />
        </mxCell>
        <mxCell id="11AMlIxPSWYtb6RvdD54-19" value="Cek Kata&lt;div&gt;dalam Kamus Antonim&lt;/div&gt;" style="rounded=1;whiteSpace=wrap;html=1;absoluteArcSize=1;arcSize=14;strokeWidth=2;" vertex="1" parent="1">
          <mxGeometry x="767" y="184" width="131" height="70" as="geometry" />
        </mxCell>
        <mxCell id="11AMlIxPSWYtb6RvdD54-24" style="edgeStyle=none;curved=1;rounded=0;orthogonalLoop=1;jettySize=auto;html=1;exitX=0.5;exitY=1;exitDx=0;exitDy=0;exitPerimeter=0;entryX=0.5;entryY=0;entryDx=0;entryDy=0;fontSize=12;startSize=8;endSize=8;" edge="1" parent="1" source="11AMlIxPSWYtb6RvdD54-20" target="11AMlIxPSWYtb6RvdD54-23">
          <mxGeometry relative="1" as="geometry" />
        </mxCell>
        <mxCell id="11AMlIxPSWYtb6RvdD54-25" value="TRUE" style="edgeLabel;html=1;align=center;verticalAlign=middle;resizable=0;points=[];fontSize=12;" vertex="1" connectable="0" parent="11AMlIxPSWYtb6RvdD54-24">
          <mxGeometry x="0.0083" relative="1" as="geometry">
            <mxPoint as="offset" />
          </mxGeometry>
        </mxCell>
        <mxCell id="11AMlIxPSWYtb6RvdD54-29" style="edgeStyle=none;curved=1;rounded=0;orthogonalLoop=1;jettySize=auto;html=1;exitX=0;exitY=0.5;exitDx=0;exitDy=0;exitPerimeter=0;entryX=1;entryY=0.5;entryDx=0;entryDy=0;fontSize=12;startSize=8;endSize=8;" edge="1" parent="1" source="11AMlIxPSWYtb6RvdD54-20" target="11AMlIxPSWYtb6RvdD54-26">
          <mxGeometry relative="1" as="geometry" />
        </mxCell>
        <mxCell id="11AMlIxPSWYtb6RvdD54-30" value="FALSE" style="edgeLabel;html=1;align=center;verticalAlign=middle;resizable=0;points=[];fontSize=12;" vertex="1" connectable="0" parent="11AMlIxPSWYtb6RvdD54-29">
          <mxGeometry x="0.0776" y="-4" relative="1" as="geometry">
            <mxPoint x="4" y="3" as="offset" />
          </mxGeometry>
        </mxCell>
        <mxCell id="11AMlIxPSWYtb6RvdD54-20" value="Ada" style="strokeWidth=2;html=1;shape=mxgraph.flowchart.decision;whiteSpace=wrap;" vertex="1" parent="1">
          <mxGeometry x="784.5" y="341" width="100" height="100" as="geometry" />
        </mxCell>
        <mxCell id="11AMlIxPSWYtb6RvdD54-22" style="edgeStyle=none;curved=1;rounded=0;orthogonalLoop=1;jettySize=auto;html=1;exitX=0.5;exitY=1;exitDx=0;exitDy=0;entryX=0.5;entryY=0;entryDx=0;entryDy=0;entryPerimeter=0;fontSize=12;startSize=8;endSize=8;" edge="1" parent="1" source="11AMlIxPSWYtb6RvdD54-19" target="11AMlIxPSWYtb6RvdD54-20">
          <mxGeometry relative="1" as="geometry" />
        </mxCell>
        <mxCell id="11AMlIxPSWYtb6RvdD54-28" style="edgeStyle=orthogonalEdgeStyle;rounded=0;orthogonalLoop=1;jettySize=auto;html=1;exitX=0;exitY=0.5;exitDx=0;exitDy=0;entryX=0.5;entryY=1;entryDx=0;entryDy=0;fontSize=12;startSize=8;endSize=8;" edge="1" parent="1" source="11AMlIxPSWYtb6RvdD54-23" target="11AMlIxPSWYtb6RvdD54-26">
          <mxGeometry relative="1" as="geometry" />
        </mxCell>
        <mxCell id="11AMlIxPSWYtb6RvdD54-23" value="&lt;i&gt;Replace &lt;/i&gt;dengan&amp;nbsp;&lt;div&gt;antonim dari kata&amp;nbsp;&lt;/div&gt;&lt;div&gt;tersebut&lt;/div&gt;" style="rounded=1;whiteSpace=wrap;html=1;absoluteArcSize=1;arcSize=14;strokeWidth=2;" vertex="1" parent="1">
          <mxGeometry x="769" y="500" width="131" height="70" as="geometry" />
        </mxCell>
        <mxCell id="11AMlIxPSWYtb6RvdD54-31" style="edgeStyle=none;curved=1;rounded=0;orthogonalLoop=1;jettySize=auto;html=1;exitX=0;exitY=0.5;exitDx=0;exitDy=0;entryX=1;entryY=0.5;entryDx=0;entryDy=0;fontSize=12;startSize=8;endSize=8;" edge="1" parent="1" source="11AMlIxPSWYtb6RvdD54-26" target="11AMlIxPSWYtb6RvdD54-27">
          <mxGeometry relative="1" as="geometry" />
        </mxCell>
        <mxCell id="11AMlIxPSWYtb6RvdD54-26" value="Hasil Antonim" style="shape=parallelogram;html=1;strokeWidth=2;perimeter=parallelogramPerimeter;whiteSpace=wrap;rounded=1;arcSize=12;size=0.23;" vertex="1" parent="1">
          <mxGeometry x="551" y="361" width="160" height="60" as="geometry" />
        </mxCell>
        <mxCell id="11AMlIxPSWYtb6RvdD54-27" value="Hapus &lt;i&gt;underscore&lt;/i&gt;" style="rounded=1;whiteSpace=wrap;html=1;absoluteArcSize=1;arcSize=14;strokeWidth=2;" vertex="1" parent="1">
          <mxGeometry x="336" y="356" width="131" height="70" as="geometry" />
        </mxCell>
        <mxCell id="11AMlIxPSWYtb6RvdD54-33" value="" style="endArrow=classic;html=1;rounded=0;fontSize=12;startSize=8;endSize=8;exitX=0.5;exitY=1;exitDx=0;exitDy=0;entryX=1;entryY=0.5;entryDx=0;entryDy=0;edgeStyle=orthogonalEdgeStyle;" edge="1" parent="1" source="11AMlIxPSWYtb6RvdD54-27" target="11AMlIxPSWYtb6RvdD54-4">
          <mxGeometry width="50" height="50" relative="1" as="geometry">
            <mxPoint x="400" y="464" as="sourcePoint" />
            <mxPoint x="450" y="414" as="targetPoint" />
            <Array as="points">
              <mxPoint x="402" y="461" />
              <mxPoint x="402" y="527" />
            </Array>
          </mxGeometry>
        </mxCell>
      </root>
    </mxGraphModel>
  </diagram>
</mxfile>
